<?xml version="1.0" encoding="UTF-8"?><svg id="Layer_2" xmlns="http://www.w3.org/2000/svg" viewBox="0 0 400 100"><defs><style>.cls-1{fill:#181819;}.cls-2{fill:#e19d1f;}</style></defs><path class="cls-2" d="M36.78,77.98c1.41,1.04,9.84,3.57,11.82,3.79,12.91,1.43,26.72-1.28,28.18-16.58.64-6.71-4.75-17.59-12.31-17.8.21-3.2,3.6-4.46,5.04-7.64,2.48-5.46,1.37-9.66-3.14-13.42-10.07-8.39-18.86-2.14-29.82-.32.83,6.98-.36,14.02-.74,21.03-.18,3.23.22,6.53.02,9.77-.32,5.09-3.8,17.67.94,21.16ZM39.57,73.49c1.63-4.86,1.71-16.81,1.78-27.35.04-6.37.08-12.38.49-15.64,0-.06.03-.11.07-.16.05-.07,5.6-7.09,16.41-4.35,5.93,1.5,7.3,5.28,7.59,7.4.5,3.7-1.47,7.94-4.49,9.67-3.36,1.92-8.34,3.71-11.3,4.69,1.44-.03,3.38,0,5.48.21,4.09.42,9.71,1.68,13.25,5.28,2.82,2.87,3.94,6.78,3.33,11.64-.75,5.97-4.25,10.19-10.13,12.22-2.74.95-5.74,1.33-8.62,1.33-6.07,0-11.65-1.69-13.31-3.34-.67-.66-.67-1.23-.55-1.59Z"/><path class="cls-2" d="M61.84,76.48c5.63-1.94,8.98-5.98,9.69-11.68.58-4.65-.48-8.38-3.15-11.1-6.53-6.63-20.64-5.16-20.78-5.15-.17.02-.32-.09-.36-.26-.03-.17.07-.33.23-.38.09-.03,8.68-2.59,13.63-5.42,2.8-1.6,4.63-5.56,4.16-9.01-.46-3.38-2.98-5.81-7.11-6.86-5.43-1.37-9.41-.18-11.8,1.06-2.3,1.2-3.61,2.67-3.88,2.99-.39,3.24-.43,9.18-.47,15.47-.07,10.59-.15,22.59-1.82,27.56-.09.26.04.57.39.92,2.36,2.34,12.95,4.73,21.26,1.86ZM49.54,29.56c3.92-2.23,9.03-.27,10.1,4.14,2.05,8.44-5.35,9.83-12.08,9.79,1.56-3.25-.75-12.38,1.98-13.93ZM47.64,52.03c14.05-5.96,26.4,12.44,11.97,20.73-16.15,9.27-12.57-11.37-11.97-20.73Z"/><path class="cls-2" d="M89.97,27.78c.81,0,1.47-.66,1.47-1.47s-.66-1.47-1.47-1.47-1.47.66-1.47,1.47.66,1.47,1.47,1.47Z"/><path class="cls-2" d="M88.9,32.49c9.51.67,8.83-13.81.8-12.26-7.33,1.41-7.46,11.79-.8,12.26ZM89.97,24.19c1.17,0,2.12.95,2.12,2.12s-.95,2.12-2.12,2.12-2.12-.95-2.12-2.12.95-2.12,2.12-2.12Z"/><path class="cls-2" d="M94.79,72.13c1.81-7.67-.82-20,.96-28.34.4-4.99-4.76-5.85-8.68-4.71-1.42.41-2.8,2.7-3.03,4.13-.79,4.96-.3,12.74-.69,18.15-.24,3.36-2.03,9.2-1.15,12.22,1.13,3.86,11.23,4.32,12.6-1.44ZM88.55,70.98c.4-1.64.34-5.31.27-9.56-.1-5.79-.22-13,.83-17.99.04-.18.21-.29.39-.25.18.04.29.21.25.39-1.03,4.92-.91,12.08-.81,17.84.07,4.3.13,8.01-.29,9.73-.04.15-.17.25-.32.25-.03,0-.05,0-.08,0-.18-.04-.28-.22-.24-.4Z"/><path class="cls-2" d="M109.87,75.87c5.44,1.13,7.27-7.31,7.92-11.32.21-1.31-.46-6.67,1.04-6.74,2.03-.09,10.3,13.42,14.49,14.14,4.52.78,7.89-1.51,6.34-6.35l-13.28-16.49c2.17-4.15,14.11-8.22,14.31-12.42.11-2.37-1.29-3.67-3.63-3.62-3.89.09-11.36,8.76-14.93,11.1-.8.52-1.3.8-2.31.61-1.5-1.56,4.49-20.54,3.64-23.41-1.38-4.63-10.42-4.67-11.81-.02-.61,14.81-5.04,30.51-5.52,45.17-.11,3.39-.53,8.45,3.76,9.33ZM120.34,49.76c1.54-2.47,5.51-5.22,9.7-8.12,2.29-1.58,4.65-3.22,6.66-4.85.14-.11.35-.09.46.05.11.14.09.35-.05.46-2.03,1.64-4.4,3.29-6.7,4.88-4.14,2.87-8.05,5.58-9.52,7.93-.83,1.34-.21,2,2.87,4.91,2.42,2.29,6.08,5.74,11.1,11.81.12.14.1.34-.04.46-.06.05-.13.08-.21.08-.09,0-.19-.04-.25-.12-5-6.03-8.64-9.47-11.05-11.75-3-2.83-4.12-3.89-2.98-5.73ZM110.87,70.37c.02-.09,2.17-9.23,2.17-17.1,0-4.76.94-11.67,1.85-18.35.64-4.71,1.25-9.16,1.54-12.88.01-.18.17-.31.35-.3.18.01.31.17.3.35-.3,3.74-.91,8.2-1.55,12.92-.91,6.66-1.85,13.55-1.85,18.26,0,7.95-2.17,17.16-2.19,17.25-.04.15-.17.25-.32.25-.03,0-.05,0-.08,0-.18-.04-.28-.22-.24-.39Z"/><path class="cls-2" d="M157.27,69.45c4.74,1.29,21.99,2.32,23.62-3.68,1.92-7.09-9.53-2.46-12.67-2.21-5.52.44-11.39-1.29-12.82-7.21-.94-3.9,2.04-1.8,4.41-1.78,6.23.07,18.76.96,20.27-7.16,1.49-8.01-9.22-16.67-16.83-15.46-14.87,2.36-26.19,32-5.98,37.5ZM155.33,40.26c2.93-3.04,6.99-5,10.32-5,3.12,0,6.49,1.7,8.8,4.44,1.77,2.11,2.58,4.52,2.21,6.6-.95,5.41-13.18,6.22-19.75,5.15-.18-.03-.3-.2-.27-.37.03-.18.2-.3.37-.27,7.21,1.17,18.2-.05,19-4.62.33-1.9-.42-4.11-2.07-6.07-2.15-2.56-5.4-4.21-8.29-4.21-3.17,0-7.03,1.88-9.85,4.8-2.19,2.26-4.75,6.16-4.56,11.93.16,4.72,1.99,8.5,5.28,10.93,4.55,3.36,11.4,3.93,19.81,1.66.17-.05.35.06.4.23.05.17-.06.35-.23.4-3.43.93-6.61,1.39-9.49,1.39-4.36,0-8.04-1.06-10.88-3.15-3.46-2.56-5.38-6.51-5.55-11.43-.2-5.99,2.47-10.06,4.74-12.41ZM168.59,39.95c1.88.75,6.09,5.44,3.77,7.29-.52.41-8.17,2.14-9.28,2.15-13.77.09-.94-12.03,5.5-9.44Z"/><path class="cls-1" d="M53.43,78.42c2.88,0,5.87-.38,8.62-1.33,5.88-2.03,9.38-6.25,10.13-12.22.61-4.86-.51-8.77-3.33-11.64-3.54-3.59-9.16-4.85-13.25-5.28-2.11-.22-4.04-.24-5.48-.21,2.96-.98,7.95-2.77,11.3-4.69,3.02-1.73,4.99-5.97,4.49-9.67-.29-2.12-1.66-5.9-7.59-7.4-10.81-2.74-16.35,4.28-16.41,4.35-.04.05-.06.1-.07.16-.4,3.26-.45,9.27-.49,15.64-.07,10.54-.15,22.49-1.78,27.35-.12.36-.12.92.55,1.59,1.67,1.65,7.24,3.34,13.31,3.34ZM40.19,73.7c1.66-4.96,1.75-16.97,1.82-27.56.04-6.29.08-12.23.47-15.47.27-.33,1.58-1.8,3.88-2.99,2.39-1.24,6.37-2.43,11.8-1.06,4.12,1.04,6.65,3.48,7.11,6.86.47,3.45-1.36,7.41-4.16,9.01-4.95,2.83-13.54,5.39-13.63,5.42-.16.05-.26.21-.23.38.03.17.19.28.36.26.14-.02,14.25-1.49,20.78,5.15,2.67,2.72,3.73,6.45,3.15,11.1-.72,5.7-4.07,9.74-9.69,11.68-8.3,2.87-18.9.47-21.26-1.86-.35-.34-.48-.65-.39-.92Z"/><path class="cls-1" d="M53.43,78.8c-6.32,0-11.86-1.76-13.58-3.45-.85-.84-.77-1.6-.64-1.98,1.61-4.81,1.69-16.72,1.76-27.23.04-6.38.08-12.4.49-15.68.02-.12.06-.24.14-.34.06-.07,5.75-7.29,16.8-4.49,6.15,1.56,7.57,5.5,7.87,7.72.52,3.84-1.53,8.25-4.67,10.05-2.68,1.53-6.41,2.99-9.24,3.99,1.11.03,2.21.1,3.27.21,4.15.43,9.86,1.71,13.48,5.39,2.91,2.95,4.06,6.97,3.44,11.95-.77,6.12-4.36,10.45-10.38,12.53-2.59.89-5.53,1.35-8.74,1.35h0ZM42.84,30.84c-.37,3.24-.41,9.11-.46,15.31-.07,10.62-.15,22.66-1.84,27.68h0c-.04.11.07.31.3.53,2.3,2.28,12.69,4.6,20.87,1.77,5.48-1.89,8.75-5.82,9.44-11.38.57-4.53-.46-8.15-3.04-10.78-6.4-6.5-20.33-5.05-20.47-5.04-.36.04-.69-.2-.77-.56-.07-.36.14-.71.49-.81.09-.03,8.61-2.56,13.55-5.38,2.68-1.53,4.43-5.32,3.98-8.63-.44-3.22-2.86-5.54-6.83-6.54-5.31-1.35-9.2-.19-11.53,1.02-2.08,1.08-3.33,2.4-3.69,2.82Z"/><path class="cls-1" d="M89.97,28.43c1.17,0,2.12-.95,2.12-2.12s-.95-2.12-2.12-2.12-2.12.95-2.12,2.12.95,2.12,2.12,2.12ZM89.97,24.84c.81,0,1.47.66,1.47,1.47s-.66,1.47-1.47,1.47-1.47-.66-1.47-1.47.66-1.47,1.47-1.47Z"/><path class="cls-1" d="M89.97,28.81c-1.38,0-2.5-1.12-2.5-2.5s1.12-2.5,2.5-2.5,2.5,1.12,2.5,2.5-1.12,2.5-2.5,2.5ZM89.97,25.22c-.6,0-1.09.49-1.09,1.09s.49,1.09,1.09,1.09,1.09-.49,1.09-1.09-.49-1.09-1.09-1.09Z"/><path class="cls-1" d="M88.79,71.37s.05,0,.08,0c.15,0,.28-.1.32-.25.42-1.72.36-5.43.29-9.73-.1-5.76-.21-12.93.81-17.84.04-.18-.08-.35-.25-.39-.18-.04-.35.08-.39.25-1.04,4.99-.92,12.2-.83,17.99.07,4.25.13,7.92-.27,9.56-.04.18.06.35.24.4Z"/><path class="cls-1" d="M88.87,71.76c-.06,0-.11,0-.17-.02h0c-.38-.09-.61-.48-.51-.85.39-1.59.33-5.24.26-9.46-.1-5.81-.22-13.04.83-18.07.04-.18.15-.34.3-.44.16-.1.35-.14.53-.1.18.04.34.15.44.3.1.16.14.35.1.53-1.02,4.88-.9,12.02-.81,17.76.07,4.32.13,8.06-.3,9.82-.08.32-.36.54-.68.54Z"/><path class="cls-1" d="M111.12,70.76s.05,0,.08,0c.15,0,.28-.1.32-.25.02-.09,2.19-9.3,2.19-17.25,0-4.72.94-11.6,1.85-18.26.64-4.72,1.25-9.18,1.55-12.92.01-.18-.12-.34-.3-.35-.18-.02-.34.12-.35.3-.3,3.72-.9,8.17-1.54,12.88-.91,6.68-1.85,13.59-1.85,18.35,0,7.87-2.15,17.01-2.17,17.1-.04.18.07.35.24.39Z"/><path class="cls-1" d="M111.19,71.15c-.06,0-.11,0-.16-.02-.18-.04-.34-.16-.43-.31-.1-.16-.13-.35-.09-.53.02-.09,2.16-9.18,2.16-17.01,0-4.78.94-11.7,1.85-18.4.64-4.71,1.25-9.16,1.54-12.86.02-.19.1-.36.25-.48.14-.12.33-.18.51-.16.39.03.68.37.64.76-.3,3.74-.91,8.2-1.55,12.92-.91,6.66-1.84,13.54-1.84,18.23,0,8.05-2.18,17.24-2.2,17.34-.08.32-.36.54-.68.54Z"/><path class="cls-1" d="M123.32,55.49c2.41,2.28,6.05,5.71,11.05,11.75.06.08.16.12.25.12.07,0,.15-.02.21-.08.14-.12.16-.32.04-.46-5.02-6.06-8.68-9.52-11.1-11.81-3.08-2.91-3.71-3.57-2.87-4.91,1.47-2.36,5.38-5.07,9.52-7.93,2.3-1.59,4.67-3.23,6.7-4.88.14-.11.16-.32.05-.46-.11-.14-.32-.16-.46-.05-2.01,1.63-4.37,3.26-6.66,4.85-4.2,2.91-8.16,5.65-9.7,8.12-1.15,1.84-.02,2.9,2.98,5.73Z"/><path class="cls-1" d="M134.62,67.73c-.21,0-.41-.09-.54-.26-4.98-6.02-8.61-9.45-11.02-11.71l.26-.27-.26.27c-2.99-2.82-4.35-4.11-3.04-6.2,1.58-2.54,5.58-5.3,9.81-8.23,2.28-1.58,4.64-3.21,6.64-4.83.3-.24.75-.2.99.1.24.3.2.75-.1.99-2.04,1.65-4.42,3.3-6.72,4.89-4.11,2.85-7.99,5.53-9.41,7.82-.63,1.02-.37,1.43,2.81,4.44,2.43,2.29,6.1,5.76,11.14,11.84.25.3.21.74-.09.99-.13.1-.29.16-.45.16ZM123.51,55.29l-.19.2.19-.2s0,0,0,0Z"/><path class="cls-1" d="M156.14,64.1c2.84,2.1,6.52,3.15,10.88,3.15,2.88,0,6.06-.46,9.49-1.39.17-.05.28-.23.23-.4-.05-.17-.23-.28-.4-.23-8.41,2.28-15.26,1.7-19.81-1.66-3.3-2.44-5.12-6.22-5.28-10.93-.19-5.77,2.37-9.67,4.56-11.93,2.82-2.91,6.68-4.8,9.85-4.8,2.89,0,6.15,1.65,8.29,4.21,1.65,1.96,2.4,4.17,2.07,6.07-.8,4.57-11.79,5.79-19,4.62-.18-.03-.35.09-.37.27-.03.18.09.35.27.37,6.58,1.06,18.8.25,19.75-5.15.37-2.09-.44-4.49-2.21-6.6-2.3-2.74-5.67-4.44-8.8-4.44-3.34,0-7.39,1.96-10.32,5-2.27,2.35-4.94,6.41-4.74,12.41.17,4.92,2.08,8.88,5.55,11.43Z"/><path class="cls-1" d="M167.01,67.63c-4.47,0-8.2-1.09-11.1-3.23-3.56-2.63-5.53-6.68-5.7-11.72-.21-6.13,2.52-10.28,4.84-12.68,3-3.11,7.16-5.11,10.59-5.11,3.23,0,6.71,1.75,9.08,4.58,1.84,2.19,2.68,4.71,2.29,6.91-.45,2.57-3.24,4.41-8.07,5.31-3.68.69-8.44.75-12.12.15-.19-.03-.35-.13-.46-.28-.11-.15-.15-.34-.12-.52.06-.38.42-.64.81-.58,6.9,1.12,17.82-.04,18.57-4.31.31-1.79-.41-3.89-1.98-5.76-2.08-2.48-5.22-4.07-8.01-4.07-3.07,0-6.83,1.84-9.58,4.68-2.13,2.21-4.64,6.02-4.45,11.66.15,4.6,1.93,8.28,5.13,10.64,4.45,3.29,11.19,3.84,19.48,1.6.38-.1.76.12.86.5.05.18.02.37-.07.53-.09.16-.25.28-.43.33-3.44.93-6.66,1.4-9.59,1.4Z"/><path class="cls-2" d="M230.63,36.29c-3.71-.03-8.59,1.24-12.36,1.41-1.75.08-3.61-.79-5.83-.71-2.55.09-7.6,1-7.58,4.23.01,2.19,3.3,3.55,1.34,7.12l-.29,26.32c2.92,4.86,12.13,4.65,12.74-1.6.19-1.99-1.57-11.17-.7-12.03,11.84-.33,28.15-2.2,26.07-17.9-.68-5.14-9.12-6.82-13.38-6.85ZM239.7,49.87c-.58,2.15-2.29,5.03-7.12,6.51-8.97,2.75-15.38,2.19-15.44,2.18-.18-.02-.31-.18-.29-.36.02-.18.18-.31.36-.29.06,0,6.36.55,15.19-2.15,4.55-1.39,6.14-4.06,6.68-6.05.85-3.14-.38-6.28-1.96-7.99-2.32-2.5-14.36-2.66-20.99-1.44-3.18.59-3.59,1.22-3.64,1.34-.42,1.04-.21,3.29.03,5.89.29,3.16.66,7.09-.02,10.3-.89,4.19-.52,8.4-.22,11.79.11,1.22.21,2.37.23,3.33,0,.18-.14.33-.32.33,0,0,0,0,0,0-.18,0-.32-.14-.33-.32-.02-.94-.12-2.03-.23-3.29-.3-3.43-.67-7.7.23-11.98.66-3.11.31-6.83,0-10.11-.26-2.8-.47-5.01.01-6.2.11-.26.43-1.06,4.13-1.74,5.89-1.09,18.88-1.29,21.59,1.64,1.71,1.85,3.03,5.22,2.11,8.61ZM217.87,42.57c1.6-2.17,24.25-1.83,16.04,8.09-.97,1.18-5.26,3.88-6.53,3.88h-9.44c.45-3.01-1.88-9.51-.08-11.97Z"/><path class="cls-2" d="M300.77,66.91c-1.73-1.24-4.91-.47-8.26.34-3.02.73-6.44,1.57-7.54.34-.88-.97-.3-4.98.26-8.86.9-6.3,1.93-13.44-1.3-16.2-.68-.58-6.31-2.54-7.11-2.74-6.11-1.47-14.77-.64-19.39-.02-2.85.38-8.12,1.86-9.79,4.95-.71,1.31-.71,2.73,0,4.24.32.68.81,1.12,1.45,1.3,1.6.47,3.74-.88,5.62-2.07.91-.57,1.77-1.12,2.36-1.32,3.38-1.15,13.23-2.01,16.24-.25,1,.58,2.68,3.35,2.5,4.12-.3,1.3-7.02,2.01-9.54,2.27-1.36.14-2.43.26-3.05.39-4.86,1.06-13.84,5.48-14.44,10.51-.29,2.44,1.35,4.55,4.9,6.27,4.69,2.28,10.02,2.26,16.29-.07,1.18-.44,2.12-1.07,3.03-1.67.73-.49,1.43-.96,2.21-1.29.03,2.7.93,4.79,2.7,6.21,1.99,1.6,4.85,2.16,7.86,2.16,3.98,0,8.25-.98,11.16-1.81,1.72-.49,5.3-1.52,5.03-4.58-.09-.99-.48-1.74-1.16-2.23ZM296.91,70.38c-.09.04-2.4.97-8.82,2.04-.94.16-1.78.24-2.52.24-1.62,0-2.8-.38-3.68-1.16-1.66-1.47-2.24-4.31-1.99-9.8.05-1.14.12-2.25.19-3.33-1.55,3.37-5.13,6.39-10.15,8.42-3.33,1.35-6.71,2.03-9.52,2.03-2.41,0-4.39-.5-5.57-1.52-2.12-1.83-1.99-3.63-1.51-4.82,1.83-4.53,11.74-8.06,21.2-7.55.18,0,.32.16.31.34,0,.18-.17.32-.34.31-10.2-.55-19.02,3.32-20.56,7.14-.58,1.44-.13,2.81,1.34,4.08,2.34,2.02,8.54,1.76,14.42-.62,6.24-2.52,10.19-6.59,10.57-10.87,0,0,0,0,0,0,.26-5.83-.28-10.05-5.86-11.99-7.12-2.48-16.89-.92-23.22,3.73-.15.11-.35.08-.46-.07-.11-.15-.08-.35.07-.46,6.6-4.84,16.39-6.41,23.82-3.82,6.97,2.43,6.59,8.29,6.12,15.71-.07,1.07-.14,2.18-.19,3.32-.24,5.2.29,7.97,1.77,9.28,1.12,1,2.87,1.23,5.66.77,6.33-1.06,8.66-1.99,8.68-2,.17-.07.36.01.43.18.07.17-.01.36-.18.43ZM273.79,57.76c-.63,2.38-3.23,5.21-5.37,6.27-4.25,2.13-8.37,1.98-10.09.76-.55-.39-.8-.85-.73-1.35.06-.49.65-2.23,5.5-4.06,2.9-1.1,6.09-1.65,9.51-1.65.39,0,.79,0,1.19.02Z"/><path class="cls-2" d="M330.77,65.19c-2.28,0-13.72,3.16-14.54,2.35-.02-4.42-.33-8.89,0-13.32.53-6.85,2.86-15.29,2.66-22.1-.2-6.93-5.44-6.28-10.28-3.7-4.58,2.45-2.06,4.5-2.09,8.25-.05,5.93-2.12,14.49-2.66,20.8-.63,7.41-2.32,14.44,7.46,15.29,3.97.35,22.66.79,23.09-4.88.17-2.22-1.77-2.69-3.64-2.7ZM329.42,68.79c-.18.08-4.56,1.88-12.06,1.92-.05,0-.09,0-.14,0-3.03,0-5.13-.63-6.43-1.91-1.57-1.56-1.88-3.87-1.87-7.09,0-3.88.89-8.07,1.83-12.51,1.19-5.63,2.42-11.46,1.94-17.17-.02-.18.12-.34.3-.35.18-.02.34.12.35.3.49,5.8-.75,11.68-1.95,17.36-.93,4.4-1.81,8.56-1.82,12.38,0,3.05.27,5.22,1.68,6.62,1.18,1.18,3.17,1.74,6.1,1.72,7.36-.05,11.77-1.85,11.81-1.87.17-.07.36,0,.43.18.07.17,0,.36-.18.43Z"/><path class="cls-2" d="M365.65,62.11c-1.89-5.04-6.84-6.68-11.21-8.13-2.17-.72-4.23-1.4-5.79-2.43-1.29-.85-1.94-1.63-1.74-2.09.53-1.24,5.41-1.99,8.41-1.29.5.12.91.4,1.38.73.7.49,1.49,1.05,2.74,1.15,3.65.31,5.15-1.47,5.33-3.09.24-2.19-1.74-4.81-5.89-5.36-5.1-.68-15.91-.61-20.31,4.52-1.96,2.28-2.42,5.24-1.37,8.79,1.01,3.42,6.22,5.23,11.27,6.97,4.3,1.49,8.75,3.02,8.13,5.05-.5.76-5.94,1.9-7.55,1.92-.78,0-2.21-.37-3.71-.77-2.93-.78-5.96-1.59-7.47-.54-.51.35-.81.9-.87,1.58-.28,3.14,4.39,4.28,6.41,4.63,1.8.31,3.65.46,5.45.46,2.76,0,5.43-.35,7.74-1.05,4.99-1.5,8.13-4.51,9.07-8.72l.02-2.21-.04-.11ZM360.71,66.99c-1.62,2.73-6.25,4.74-11.88,4.74-2.24,0-4.64-.32-7.07-1.03-.17-.05-.27-.23-.22-.41.05-.17.23-.27.41-.22,8.24,2.43,16.07.2,18.2-3.41.93-1.58.62-3.21-.89-4.72-1.86-1.85-4.98-2.77-8-3.65-4.45-1.31-9.04-2.66-9.71-7.04-.29-1.93.62-3.58,2.65-4.78,4.64-2.75,13.78-2.53,16.71-.29.14.11.17.31.06.46-.11.14-.31.17-.46.06-2.72-2.08-11.6-2.25-15.98.34-1.8,1.07-2.59,2.45-2.33,4.12.6,3.97,4.8,5.21,9.25,6.51,3.1.91,6.3,1.85,8.28,3.82,1.73,1.72,2.08,3.68,1,5.52Z"/><path class="cls-1" d="M216,39.63c-3.7.68-4.02,1.48-4.13,1.74-.48,1.19-.27,3.4-.01,6.2.31,3.28.65,6.99,0,10.11-.91,4.28-.53,8.55-.23,11.98.11,1.26.21,2.35.23,3.29,0,.18.15.32.33.32,0,0,0,0,0,0,.18,0,.32-.15.32-.33-.02-.96-.12-2.11-.23-3.33-.3-3.39-.67-7.6.22-11.79.68-3.21.31-7.14.02-10.3-.24-2.6-.45-4.85-.03-5.89.05-.12.45-.75,3.64-1.34,6.63-1.22,18.68-1.06,20.99,1.44,1.59,1.72,2.81,4.85,1.96,7.99-.54,1.99-2.13,4.66-6.68,6.05-8.84,2.71-15.13,2.16-15.19,2.15-.18-.02-.34.12-.36.29-.02.18.12.34.29.36.06,0,6.48.57,15.44-2.18,4.83-1.48,6.54-4.36,7.12-6.51.91-3.38-.4-6.76-2.11-8.61-2.71-2.93-15.7-2.73-21.59-1.64Z"/><path class="cls-1" d="M212.18,73.64c-.38,0-.7-.31-.7-.69-.02-.93-.11-2-.22-3.25l.37-.05-.38.03c-.3-3.46-.68-7.76.24-12.09.65-3.06.3-6.74,0-9.99-.27-2.85-.48-5.1.04-6.37.23-.58.95-1.33,4.41-1.97h0c3.16-.58,8.01-.86,12.07-.69,3.61.15,8.25.7,9.87,2.45,1.78,1.92,3.15,5.44,2.2,8.96-.61,2.24-2.38,5.24-7.37,6.77-9.05,2.77-15.53,2.2-15.59,2.19-.39-.04-.67-.38-.63-.77.04-.39.38-.67.77-.64.06,0,6.32.53,15.05-2.14,4.38-1.34,5.91-3.89,6.43-5.79.81-3-.36-6-1.88-7.64-2.05-2.22-13.56-2.63-20.65-1.33-2.97.55-3.36,1.12-3.36,1.13-.38.94-.16,3.25.07,5.7.3,3.19.67,7.15-.02,10.42-.87,4.13-.51,8.32-.21,11.68.11,1.23.21,2.38.23,3.36,0,.19-.06.37-.19.5-.13.13-.29.21-.47.22h-.04Z"/><path class="cls-1" d="M296.67,69.78s-2.35.94-8.68,2c-2.79.47-4.54.23-5.66-.77-1.48-1.31-2.01-4.09-1.77-9.28.05-1.14.12-2.25.19-3.32.48-7.42.86-13.27-6.12-15.71-7.43-2.59-17.22-1.02-23.82,3.82-.15.11-.18.31-.07.46.11.15.31.18.46.07,6.33-4.64,16.09-6.21,23.22-3.73,5.57,1.94,6.11,6.16,5.86,11.99,0,0,0,0,0,0-.38,4.28-4.33,8.35-10.57,10.87-5.88,2.38-12.08,2.65-14.42.62-1.47-1.27-1.92-2.64-1.34-4.08,1.54-3.82,10.36-7.69,20.56-7.14.18,0,.33-.13.34-.31,0-.18-.13-.33-.31-.34-9.46-.51-19.37,3.02-21.2,7.55-.48,1.19-.6,2.99,1.51,4.82,1.18,1.02,3.17,1.52,5.57,1.52,2.81,0,6.19-.69,9.52-2.03,5.01-2.03,8.6-5.05,10.15-8.42-.07,1.08-.14,2.19-.19,3.33-.25,5.49.33,8.33,1.99,9.8.88.78,2.06,1.16,3.68,1.16.74,0,1.58-.08,2.52-.24,6.43-1.07,8.73-2,8.82-2.04.17-.07.25-.26.18-.43-.07-.17-.26-.25-.43-.18Z"/><path class="cls-1" d="M285.57,73.04c-1.69,0-2.97-.41-3.93-1.26-1.76-1.56-2.37-4.49-2.12-10.1.03-.57.06-1.12.09-1.67-1.88,2.88-5.19,5.37-9.53,7.13-3.28,1.33-6.72,2.06-9.66,2.06-2.59,0-4.6-.56-5.82-1.61-2.29-1.98-2.14-3.94-1.62-5.24.93-2.29,3.75-4.38,7.96-5.88,4.09-1.46,9.05-2.15,13.61-1.9.19,0,.36.09.49.23s.19.32.18.51c0,.19-.09.36-.23.49-.14.13-.32.19-.51.18-4.67-.25-9.42.43-13.37,1.91-3.54,1.33-6.09,3.19-6.81,5-.52,1.29-.12,2.49,1.23,3.65,2.24,1.94,8.27,1.64,14.03-.69,6.1-2.47,9.97-6.41,10.33-10.55h0c.27-6.17-.54-9.84-5.6-11.6-7.01-2.45-16.63-.9-22.87,3.67-.31.23-.75.16-.98-.15-.11-.15-.16-.34-.13-.52.03-.19.13-.35.28-.46,6.69-4.91,16.63-6.5,24.17-3.87,3.33,1.16,5.27,3.15,6.09,6.24.73,2.76.52,6.04.28,9.84v.02c-.07,1.06-.14,2.16-.19,3.29-.23,5.07.26,7.76,1.64,8.98,1.03.91,2.68,1.12,5.35.68,6.25-1.04,8.58-1.97,8.6-1.98l.14.35-.14-.35c.36-.15.77.03.92.38.15.36-.02.77-.38.92-.1.04-2.46.99-8.91,2.06-.98.16-1.82.24-2.59.24ZM296.81,70.13s0,0,0,0c0,0,0,0,0,0h0ZM280.49,56.33c-.04.19-.09.37-.14.56l.12-.27c0-.1.01-.2.02-.29Z"/><path class="cls-1" d="M329.17,68.19s-4.45,1.83-11.81,1.87c-2.93.02-4.92-.55-6.1-1.72-1.41-1.4-1.69-3.57-1.68-6.62,0-3.82.89-7.97,1.82-12.38,1.2-5.68,2.44-11.55,1.95-17.36-.02-.18-.17-.31-.35-.3-.18.02-.31.17-.3.35.48,5.71-.75,11.53-1.94,17.17-.94,4.44-1.82,8.63-1.83,12.51,0,3.22.31,5.53,1.87,7.09,1.29,1.29,3.4,1.91,6.43,1.91.05,0,.09,0,.14,0,7.5-.05,11.88-1.85,12.06-1.92.17-.07.24-.26.18-.43-.07-.17-.26-.25-.43-.18Z"/><path class="cls-1" d="M317.22,71.09c-3.14,0-5.33-.66-6.69-2.02-1.66-1.65-1.99-4.04-1.98-7.36,0-3.92.9-8.13,1.84-12.59,1.19-5.61,2.41-11.41,1.94-17.06-.02-.19.04-.37.16-.51.12-.14.29-.23.48-.25.19-.02.37.04.51.16.14.12.23.29.25.48.49,5.86-.75,11.76-1.96,17.47-.93,4.38-1.8,8.52-1.81,12.3,0,2.95.26,5.05,1.57,6.36,1.11,1.1,3.02,1.63,5.83,1.61,7.26-.05,11.62-1.82,11.67-1.84l.15.35-.15-.35c.36-.15.77.02.92.38.15.36-.02.77-.38.92-.19.08-4.63,1.9-12.2,1.95h-.14ZM329.31,68.53s0,0,0,0c0,0,0,0,0,0h0Z"/><path class="cls-1" d="M351.43,57.66c-4.45-1.31-8.65-2.54-9.25-6.51-.25-1.66.53-3.05,2.33-4.12,4.37-2.59,13.26-2.41,15.98-.34.14.11.35.08.46-.06.11-.14.08-.35-.06-.46-2.93-2.23-12.06-2.46-16.71.29-2.02,1.2-2.94,2.85-2.65,4.78.66,4.39,5.26,5.74,9.71,7.04,3.02.89,6.15,1.81,8,3.65,1.52,1.51,1.83,3.14.89,4.72-2.13,3.61-9.96,5.84-18.2,3.41-.17-.05-.35.05-.41.22-.05.17.05.35.22.41,2.43.72,4.83,1.03,7.07,1.03,5.63,0,10.27-2.01,11.88-4.74,1.09-1.84.73-3.8-1-5.52-1.98-1.96-5.18-2.91-8.28-3.82Z"/><path class="cls-1" d="M348.82,72.11c-2.4,0-4.81-.35-7.17-1.05-.37-.11-.59-.5-.48-.87.11-.37.5-.59.87-.48,8.08,2.38,15.71.24,17.77-3.24.85-1.43.57-2.87-.84-4.26-1.79-1.78-4.87-2.68-7.85-3.56-4.56-1.34-9.27-2.73-9.98-7.35-.32-2.09.66-3.87,2.83-5.16,2.2-1.3,5.55-2.06,9.19-2.07.02,0,.05,0,.07,0,3.45,0,6.39.67,7.87,1.8.31.24.37.68.13.99-.11.15-.28.25-.47.27-.19.03-.37-.02-.52-.14-1.24-.95-3.98-1.53-7.14-1.5-3.34.02-6.48.72-8.42,1.86-1.68.99-2.38,2.22-2.15,3.74.57,3.74,4.65,4.94,8.98,6.21l-.11.36.11-.36c3.14.92,6.4,1.88,8.44,3.91,1.86,1.85,2.24,3.97,1.05,5.97-1.74,2.94-6.65,4.92-12.21,4.92h0ZM351.35,57.93s0,0,0,0l.08-.27-.08.27Z"/></svg>