<?xml version="1.0" encoding="UTF-8"?><svg id="Layer_2" xmlns="http://www.w3.org/2000/svg" viewBox="0 0 400 300"><defs><style>.cls-1{fill:#181819;}.cls-2{fill:#e19d1f;}</style></defs><path class="cls-2" d="M64.74,155.96c2.5,1.84,17.48,6.35,21,6.73,22.94,2.53,47.46-2.27,50.05-29.44,1.14-11.91-8.43-31.23-21.86-31.61.37-5.67,6.4-7.93,8.96-13.56,4.4-9.71,2.43-17.16-5.58-23.84-17.88-14.91-33.5-3.8-52.97-.57,1.47,12.39-.63,24.91-1.31,37.36-.31,5.74.4,11.6.04,17.35-.57,9.04-6.75,31.38,1.68,37.59ZM69.7,147.99c2.9-8.64,3.04-29.86,3.17-48.58.08-11.31.15-21.99.87-27.77.01-.1.05-.2.12-.28.1-.13,9.94-12.59,29.14-7.73,10.54,2.67,12.97,9.38,13.49,13.15.9,6.56-2.6,14.11-7.97,17.17-5.96,3.41-14.82,6.59-20.08,8.33,2.57-.06,6-.02,9.74.37,7.26.75,17.24,2.99,23.52,9.37,5.01,5.09,7,12.04,5.92,20.67-1.33,10.6-7.55,18.1-17.99,21.7-4.87,1.68-10.19,2.36-15.31,2.36-10.79,0-20.69-3.01-23.64-5.94-1.19-1.18-1.19-2.18-.97-2.82Z"/><path class="cls-2" d="M109.24,153.3c9.99-3.45,15.94-10.62,17.22-20.75,1.04-8.25-.84-14.88-5.59-19.71-11.6-11.78-36.66-9.17-36.91-9.14-.3.03-.57-.17-.63-.46-.06-.29.12-.59.4-.67.15-.05,15.41-4.59,24.21-9.62,4.98-2.85,8.23-9.88,7.39-16.01-.82-6-5.3-10.32-12.62-12.18-9.64-2.44-16.71-.33-20.95,1.88-4.09,2.12-6.4,4.74-6.89,5.32-.69,5.76-.76,16.31-.84,27.47-.13,18.81-.27,40.13-3.23,48.94-.16.47.07,1.02.69,1.63,4.18,4.15,23,8.4,37.75,3.31ZM87.41,69.97c6.96-3.97,16.04-.47,17.94,7.36,3.64,15-9.5,17.45-21.46,17.39,2.76-5.78-1.34-21.98,3.52-24.75ZM84.03,109.88c24.95-10.58,46.89,22.09,21.27,36.81-28.68,16.47-22.33-20.2-21.27-36.81Z"/><path class="cls-2" d="M159.2,66.8c1.44,0,2.61-1.17,2.61-2.61s-1.17-2.61-2.61-2.61-2.61,1.17-2.61,2.61,1.17,2.61,2.61,2.61Z"/><path class="cls-2" d="M157.31,75.17c16.89,1.18,15.68-24.52,1.43-21.77-13.02,2.51-13.24,20.95-1.43,21.77ZM159.2,60.43c2.08,0,3.77,1.69,3.77,3.77s-1.69,3.77-3.77,3.77-3.77-1.69-3.77-3.77,1.69-3.77,3.77-3.77Z"/><path class="cls-2" d="M167.77,145.58c3.22-13.63-1.46-35.52,1.71-50.34.71-8.86-8.46-10.39-15.42-8.36-2.52.73-4.97,4.79-5.38,7.33-1.4,8.81-.53,22.64-1.23,32.24-.43,5.97-3.61,16.33-2.05,21.7,2,6.85,19.95,7.67,22.37-2.56ZM156.68,143.52c.72-2.91.61-9.43.48-16.98-.17-10.29-.38-23.09,1.47-31.95.07-.31.37-.51.69-.45.31.07.51.37.45.69-1.83,8.73-1.61,21.46-1.44,31.69.13,7.63.24,14.22-.52,17.28-.07.26-.3.44-.56.44-.05,0-.09,0-.14-.02-.31-.08-.5-.39-.42-.7Z"/><path class="cls-2" d="M194.55,152.22c9.66,2.01,12.9-12.98,14.06-20.11.38-2.33-.81-11.85,1.85-11.97,3.6-.17,18.29,23.83,25.73,25.11,8.03,1.38,14.02-2.68,11.25-11.27l-23.59-29.28c3.85-7.37,25.06-14.59,25.42-22.05.2-4.21-2.29-6.53-6.44-6.42-6.92.17-20.17,15.56-26.52,19.72-1.42.93-2.3,1.42-4.1,1.09-2.67-2.76,7.98-36.48,6.46-41.57-2.45-8.23-18.51-8.29-20.98-.03-1.08,26.3-8.95,54.19-9.8,80.22-.2,6.01-.94,15,6.67,16.58ZM213.15,105.84c2.74-4.39,9.78-9.27,17.23-14.43,4.06-2.81,8.26-5.72,11.83-8.61.25-.2.61-.16.82.09.2.25.16.61-.09.82-3.6,2.92-7.82,5.84-11.89,8.66-7.35,5.09-14.3,9.9-16.91,14.09-1.48,2.38-.37,3.55,5.1,8.72,4.3,4.06,10.8,10.2,19.72,20.97.2.25.17.61-.08.82-.11.09-.24.13-.37.13-.17,0-.33-.07-.45-.21-8.88-10.72-15.34-16.82-19.62-20.87-5.33-5.03-7.32-6.92-5.29-10.18ZM196.33,142.44c.04-.16,3.86-16.39,3.86-30.37,0-8.45,1.67-20.73,3.29-32.59,1.14-8.37,2.22-16.27,2.74-22.88.03-.32.3-.56.62-.53.32.03.56.31.53.62-.53,6.64-1.61,14.56-2.75,22.94-1.61,11.83-3.28,24.06-3.28,32.44,0,14.12-3.85,30.47-3.89,30.64-.06.27-.3.45-.56.45-.04,0-.09,0-.13-.02-.31-.07-.5-.39-.43-.7Z"/><path class="cls-2" d="M278.73,140.82c8.42,2.29,39.06,4.12,41.96-6.54,3.42-12.6-16.93-4.37-22.51-3.92-9.8.78-20.23-2.29-22.77-12.81-1.68-6.93,3.63-3.2,7.83-3.16,11.07.12,33.32,1.71,36-12.72,2.64-14.23-16.37-29.61-29.89-27.46-26.41,4.2-46.51,56.83-10.62,66.6ZM275.29,88.97c5.21-5.39,12.41-8.87,18.33-8.87,5.55,0,11.54,3.02,15.62,7.89,3.14,3.74,4.57,8.02,3.92,11.73-1.69,9.6-23.4,11.04-35.08,9.15-.32-.05-.53-.35-.48-.67.05-.32.35-.53.67-.48,12.81,2.07,32.33-.09,33.75-8.21.59-3.37-.74-7.3-3.67-10.78-3.81-4.54-9.6-7.48-14.73-7.48-5.62,0-12.49,3.34-17.5,8.52-3.88,4.01-8.44,10.95-8.09,21.19.28,8.37,3.53,15.09,9.38,19.41,8.08,5.97,20.24,6.99,35.18,2.94.31-.08.63.1.71.41.08.31-.1.63-.41.71-6.09,1.65-11.73,2.47-16.85,2.47-7.74,0-14.28-1.87-19.32-5.6-6.15-4.54-9.55-11.57-9.85-20.31-.36-10.65,4.38-17.86,8.42-22.04ZM298.84,88.42c3.33,1.34,10.81,9.66,6.7,12.95-.92.73-14.52,3.81-16.48,3.82-24.46.16-1.67-21.36,9.78-16.77Z"/><path class="cls-2" d="M102.95,176.56c-6.6-.04-15.25,2.2-21.96,2.5-3.1.14-6.4-1.41-10.35-1.26-4.53.17-13.5,1.77-13.47,7.52.02,3.89,5.86,6.31,2.38,12.64l-.52,46.75c5.18,8.63,21.54,8.26,22.62-2.84.34-3.54-2.78-19.84-1.24-21.37,21.02-.59,50-3.91,46.3-31.79-1.21-9.12-16.19-12.11-23.76-12.16ZM119.06,200.68c-1.03,3.82-4.06,8.93-12.64,11.56-15.93,4.88-27.31,3.88-27.43,3.87-.32-.03-.55-.31-.52-.63.03-.32.31-.55.63-.52.11.01,11.29.98,26.98-3.82,8.07-2.47,10.91-7.21,11.86-10.75,1.5-5.58-.67-11.15-3.49-14.19-4.12-4.45-25.51-4.73-37.29-2.56-5.66,1.04-6.37,2.17-6.46,2.38-.74,1.85-.37,5.85.06,10.47.52,5.61,1.18,12.6-.03,18.3-1.57,7.44-.92,14.93-.39,20.94.19,2.16.37,4.2.41,5.92,0,.32-.25.59-.57.59,0,0,0,0-.01,0-.31,0-.57-.25-.58-.57-.04-1.67-.21-3.61-.4-5.84-.53-6.09-1.2-13.68.41-21.28,1.17-5.53.55-12.13.01-17.95-.46-4.97-.83-8.9.02-11.01.19-.47.76-1.88,7.33-3.09,10.46-1.93,33.53-2.29,38.35,2.91,3.04,3.28,5.37,9.28,3.75,15.28ZM80.28,187.72c2.84-3.86,43.06-3.26,28.49,14.36-1.73,2.09-9.34,6.89-11.59,6.89h-16.76c.8-5.35-3.35-16.89-.13-21.25Z"/><path class="cls-2" d="M227.53,230.94c-3.08-2.21-8.71-.84-14.68.61-5.37,1.3-11.45,2.78-13.4.61-1.55-1.73-.53-8.85.46-15.73,1.61-11.19,3.43-23.87-2.31-28.76-1.2-1.03-11.2-4.52-12.63-4.86-10.85-2.61-26.24-1.14-34.44-.03-5.06.68-14.42,3.3-17.4,8.79-1.26,2.32-1.26,4.85,0,7.52.57,1.21,1.44,1.99,2.57,2.32,2.85.83,6.64-1.57,9.98-3.68,1.62-1.02,3.14-1.98,4.19-2.34,6-2.04,23.5-3.56,28.85-.45,1.77,1.03,4.76,5.96,4.45,7.32-.53,2.3-12.46,3.56-16.95,4.04-2.41.25-4.32.46-5.41.69-8.63,1.88-24.58,9.73-25.65,18.66-.52,4.34,2.41,8.09,8.69,11.14,8.33,4.05,17.79,4.01,28.93-.12,2.1-.78,3.77-1.9,5.38-2.97,1.3-.87,2.54-1.7,3.93-2.29.05,4.8,1.66,8.5,4.79,11.02,3.54,2.84,8.61,3.84,13.95,3.84,7.08,0,14.65-1.74,19.82-3.22,3.05-.88,9.41-2.7,8.93-8.13-.16-1.76-.85-3.09-2.06-3.96ZM220.67,237.11c-.17.07-4.26,1.72-15.67,3.62-1.68.28-3.16.42-4.48.42-2.88,0-4.97-.67-6.53-2.06-2.95-2.62-3.98-7.66-3.53-17.41.09-2.03.22-4,.34-5.91-2.75,5.98-9.12,11.35-18.02,14.95-5.92,2.39-11.92,3.61-16.9,3.61-4.27,0-7.8-.89-9.9-2.7-3.76-3.26-3.54-6.45-2.69-8.56,3.25-8.05,20.84-14.31,37.65-13.4.32.02.57.29.55.61-.02.32-.29.56-.61.55-18.12-.98-33.78,5.9-36.51,12.68-1.03,2.55-.23,4.99,2.37,7.25,4.16,3.6,15.17,3.12,25.61-1.11,11.08-4.48,18.09-11.7,18.77-19.31,0,0,0,0,0,0,.46-10.36-.51-17.84-10.4-21.29-12.65-4.41-29.99-1.63-41.24,6.62-.26.19-.62.13-.81-.12-.19-.26-.13-.62.12-.81,11.71-8.59,29.11-11.38,42.31-6.78,12.38,4.32,11.71,14.72,10.86,27.89-.12,1.91-.25,3.87-.34,5.89-.42,9.23.52,14.16,3.14,16.49,2,1.77,5.1,2.19,10.05,1.36,11.25-1.87,15.38-3.54,15.42-3.55.3-.12.64.02.76.32.12.3-.02.63-.32.76ZM179.6,214.69c-1.12,4.22-5.74,9.25-9.53,11.14-7.55,3.78-14.87,3.52-17.93,1.35-.98-.7-1.42-1.5-1.3-2.4.11-.87,1.15-3.95,9.76-7.2,5.16-1.94,10.82-2.93,16.89-2.93.7,0,1.4.01,2.11.04Z"/><path class="cls-2" d="M280.8,227.89c-4.04,0-24.37,5.61-25.83,4.18-.04-7.85-.59-15.79,0-23.65.93-12.17,5.07-27.15,4.72-39.26-.36-12.32-9.66-11.16-18.26-6.57-8.14,4.34-3.65,8-3.72,14.65-.1,10.53-3.76,25.73-4.72,36.94-1.12,13.17-4.12,25.65,13.24,27.16,7.05.62,40.24,1.4,41.02-8.66.3-3.94-3.14-4.78-6.47-4.79ZM278.4,234.28c-.32.14-8.1,3.33-21.42,3.41-.08,0-.17,0-.25,0-5.38,0-9.12-1.11-11.42-3.4-2.78-2.77-3.34-6.87-3.33-12.59.01-6.9,1.58-14.34,3.25-22.22,2.12-10.01,4.3-20.35,3.45-30.49-.03-.32.21-.6.53-.63.32-.03.6.21.63.53.87,10.31-1.34,20.74-3.47,30.83-1.65,7.82-3.21,15.2-3.23,21.98,0,5.42.49,9.28,2.98,11.77,2.1,2.09,5.64,3.09,10.84,3.06,13.07-.08,20.9-3.29,20.98-3.32.3-.12.64.02.76.31.12.3-.02.64-.31.76Z"/><path class="cls-2" d="M342.75,222.42c-3.36-8.95-12.15-11.87-19.91-14.45-3.86-1.28-7.51-2.49-10.28-4.31-2.29-1.5-3.45-2.89-3.1-3.71.94-2.2,9.6-3.53,14.94-2.3.89.21,1.61.71,2.45,1.31,1.24.87,2.65,1.86,4.87,2.05,6.48.55,9.15-2.61,9.46-5.48.42-3.88-3.1-8.54-10.46-9.52-9.06-1.21-28.25-1.09-36.06,8.03-3.47,4.05-4.29,9.31-2.43,15.62,1.79,6.08,11.05,9.28,20.01,12.37,7.64,2.64,15.54,5.37,14.43,8.97-.88,1.35-10.54,3.38-13.4,3.4-1.39.01-3.93-.66-6.59-1.37-5.2-1.39-10.58-2.83-13.26-.96-.9.63-1.44,1.6-1.54,2.8-.5,5.58,7.79,7.61,11.38,8.22,3.2.55,6.48.81,9.68.81,4.89,0,9.64-.63,13.74-1.86,8.86-2.66,14.43-8.02,16.11-15.49l.03-3.93-.07-.2ZM333.97,231.09c-2.87,4.85-11.1,8.41-21.11,8.42-3.98,0-8.23-.56-12.55-1.83-.31-.09-.48-.41-.39-.72.09-.31.41-.48.72-.39,14.64,4.31,28.54.35,32.33-6.06,1.66-2.8,1.11-5.7-1.59-8.38-3.3-3.28-8.85-4.91-14.22-6.49-7.9-2.32-16.06-4.72-17.24-12.51-.52-3.42,1.11-6.35,4.7-8.48,8.25-4.89,24.47-4.49,29.67-.52.25.19.3.56.11.81-.19.25-.56.3-.81.11-4.83-3.69-20.61-4-28.38.6-3.2,1.89-4.59,4.35-4.14,7.31,1.07,7.06,8.53,9.25,16.42,11.57,5.51,1.62,11.2,3.29,14.71,6.78,3.07,3.05,3.7,6.53,1.77,9.8Z"/><path class="cls-1" d="M94.32,156.75c5.12,0,10.43-.68,15.31-2.36,10.44-3.6,16.66-11.11,17.99-21.7,1.08-8.62-.91-15.58-5.92-20.67-6.29-6.38-16.26-8.62-23.52-9.37-3.74-.39-7.17-.43-9.74-.37,5.26-1.75,14.12-4.93,20.08-8.33,5.36-3.06,8.86-10.61,7.97-17.17-.51-3.76-2.95-10.48-13.49-13.15-19.2-4.86-29.04,7.6-29.14,7.73-.06.08-.1.18-.12.28-.72,5.79-.79,16.46-.87,27.77-.13,18.72-.27,39.94-3.17,48.58-.21.64-.22,1.64.97,2.82,2.96,2.93,12.85,5.94,23.64,5.94ZM70.8,148.36c2.96-8.81,3.1-30.13,3.23-48.94.08-11.16.15-21.72.84-27.47.49-.58,2.8-3.19,6.89-5.32,4.24-2.2,11.32-4.32,20.95-1.88,7.32,1.85,11.8,6.18,12.62,12.18.84,6.13-2.41,13.16-7.39,16.01-8.79,5.03-24.05,9.57-24.21,9.62-.29.09-.46.38-.4.67.06.29.33.5.63.46.25-.03,25.31-2.64,36.91,9.14,4.75,4.82,6.63,11.45,5.59,19.71-1.27,10.13-7.23,17.3-17.22,20.75-14.75,5.09-33.57.84-37.75-3.31-.62-.61-.85-1.16-.69-1.63Z"/><path class="cls-1" d="M94.31,157.42c-11.22,0-21.07-3.12-24.11-6.13-1.51-1.5-1.36-2.84-1.14-3.51,2.86-8.54,3.01-29.7,3.13-48.37.08-11.33.15-22.02.87-27.85.03-.22.11-.43.25-.61.1-.13,10.21-12.94,29.83-7.97,10.92,2.77,13.45,9.77,13.98,13.71.93,6.82-2.72,14.65-8.3,17.84-4.76,2.72-11.39,5.3-16.41,7.09,1.97.05,3.92.17,5.81.37,7.37.76,17.51,3.04,23.93,9.57,5.16,5.24,7.22,12.38,6.11,21.22-1.37,10.87-7.74,18.56-18.44,22.25-4.6,1.59-9.83,2.39-15.52,2.39h0ZM75.5,72.23c-.66,5.76-.73,16.17-.81,27.19-.13,18.86-.27,40.24-3.26,49.16h0c-.07.2.13.55.53.94,4.08,4.05,22.54,8.16,37.06,3.15,9.73-3.36,15.53-10.34,16.77-20.2,1.01-8.04-.81-14.48-5.41-19.15-11.37-11.55-36.12-8.98-36.36-8.95-.65.07-1.23-.36-1.36-1-.13-.64.25-1.26.87-1.45.15-.05,15.29-4.54,24.06-9.56,4.76-2.72,7.86-9.46,7.06-15.33-.78-5.71-5.08-9.84-12.12-11.62-9.43-2.39-16.34-.33-20.48,1.82-3.7,1.92-5.91,4.27-6.56,5Z"/><path class="cls-1" d="M159.2,67.96c2.08,0,3.77-1.69,3.77-3.77s-1.69-3.77-3.77-3.77-3.77,1.69-3.77,3.77,1.69,3.77,3.77,3.77ZM159.2,61.59c1.44,0,2.61,1.17,2.61,2.61s-1.17,2.61-2.61,2.61-2.61-1.17-2.61-2.61,1.17-2.61,2.61-2.61Z"/><path class="cls-1" d="M159.2,68.63c-2.45,0-4.44-1.99-4.44-4.44s1.99-4.44,4.44-4.44,4.44,1.99,4.44,4.44-1.99,4.44-4.44,4.44ZM159.2,62.26c-1.07,0-1.94.87-1.94,1.94s.87,1.94,1.94,1.94,1.94-.87,1.94-1.94-.87-1.94-1.94-1.94Z"/><path class="cls-1" d="M157.11,144.23s.09.02.14.02c.26,0,.5-.18.56-.44.75-3.05.64-9.64.52-17.28-.17-10.23-.38-22.96,1.44-31.69.07-.31-.14-.62-.45-.69-.31-.07-.62.14-.69.45-1.85,8.86-1.64,21.66-1.47,31.95.13,7.55.23,14.07-.48,16.98-.08.31.11.63.42.7Z"/><path class="cls-1" d="M157.25,144.91c-.1,0-.2-.01-.3-.04h0c-.67-.17-1.08-.84-.91-1.51.7-2.82.59-9.3.46-16.81-.17-10.32-.38-23.16,1.48-32.09.07-.33.26-.61.54-.79.28-.18.61-.25.94-.18.33.07.61.26.79.54.18.28.25.61.18.94-1.81,8.66-1.6,21.35-1.43,31.54.13,7.68.24,14.31-.54,17.45-.14.56-.64.95-1.21.95Z"/><path class="cls-1" d="M196.76,143.14s.09.02.13.02c.26,0,.5-.18.56-.45.04-.16,3.89-16.52,3.89-30.64,0-8.37,1.67-20.61,3.28-32.44,1.14-8.38,2.22-16.3,2.75-22.94.03-.32-.21-.6-.53-.62-.32-.03-.6.21-.62.53-.53,6.61-1.6,14.51-2.74,22.88-1.62,11.87-3.29,24.14-3.29,32.59,0,13.98-3.82,30.2-3.86,30.37-.07.31.12.63.43.7Z"/><path class="cls-1" d="M196.9,143.83c-.1,0-.2-.01-.29-.04-.32-.08-.6-.28-.77-.56-.18-.28-.23-.62-.15-.95.04-.16,3.84-16.31,3.84-30.21,0-8.5,1.67-20.79,3.29-32.68,1.14-8.37,2.22-16.26,2.74-22.85.03-.34.18-.64.44-.86.25-.22.58-.32.91-.29.68.05,1.2.66,1.14,1.34-.53,6.65-1.61,14.57-2.75,22.95-1.61,11.83-3.28,24.04-3.28,32.37,0,14.3-3.87,30.63-3.91,30.79-.13.56-.63.96-1.22.96Z"/><path class="cls-1" d="M218.44,116.01c4.28,4.04,10.75,10.15,19.62,20.87.11.14.28.21.45.21.13,0,.26-.04.37-.13.25-.2.28-.57.08-.82-8.92-10.77-15.42-16.91-19.72-20.97-5.48-5.17-6.58-6.35-5.1-8.72,2.61-4.19,9.55-9,16.91-14.09,4.08-2.82,8.29-5.74,11.89-8.66.25-.2.29-.57.09-.82-.2-.25-.57-.29-.82-.09-3.57,2.89-7.77,5.8-11.83,8.61-7.45,5.16-14.49,10.04-17.23,14.43-2.03,3.26-.04,5.15,5.29,10.18Z"/><path class="cls-1" d="M238.51,137.76c-.37,0-.72-.17-.96-.45-8.85-10.69-15.3-16.78-19.57-20.81l.46-.49-.46.49c-5.3-5.01-7.72-7.29-5.4-11.02,2.81-4.51,9.9-9.42,17.41-14.62,4.05-2.81,8.24-5.71,11.79-8.58.54-.43,1.32-.35,1.76.18.43.54.35,1.33-.18,1.76-3.63,2.93-7.85,5.86-11.94,8.69-7.3,5.05-14.18,9.83-16.72,13.89-1.13,1.81-.66,2.54,4.99,7.88,4.31,4.07,10.83,10.22,19.78,21.03.44.53.37,1.32-.17,1.76-.22.19-.51.29-.8.29ZM218.78,115.66l-.34.36.34-.36s0,0,0,0Z"/><path class="cls-1" d="M276.73,131.32c5.04,3.72,11.57,5.6,19.32,5.6,5.12,0,10.77-.82,16.85-2.47.31-.08.49-.4.41-.71-.08-.31-.4-.49-.71-.41-14.94,4.04-27.1,3.03-35.18-2.94-5.85-4.33-9.1-11.04-9.38-19.41-.35-10.24,4.21-17.18,8.09-21.19,5-5.18,11.87-8.52,17.5-8.52,5.14,0,10.92,2.93,14.73,7.48,2.92,3.48,4.26,7.41,3.67,10.78-1.43,8.11-20.94,10.28-33.75,8.21-.31-.05-.61.16-.67.48-.05.32.16.61.48.67,11.68,1.89,33.39.45,35.08-9.15.65-3.71-.78-7.98-3.92-11.73-4.09-4.87-10.07-7.89-15.62-7.89-5.92,0-13.12,3.48-18.33,8.87-4.04,4.18-8.78,11.39-8.42,22.04.29,8.74,3.7,15.76,9.85,20.31Z"/><path class="cls-1" d="M296.04,137.58c-7.94,0-14.57-1.93-19.71-5.73-6.32-4.67-9.82-11.87-10.12-20.82-.37-10.88,4.48-18.25,8.6-22.52,5.33-5.52,12.72-9.08,18.81-9.08,5.74,0,11.92,3.11,16.13,8.13,3.27,3.9,4.75,8.37,4.07,12.27-.8,4.57-5.76,7.83-14.33,9.43-6.54,1.22-14.99,1.33-21.52.27-.33-.05-.62-.23-.81-.5-.2-.27-.27-.6-.22-.93.11-.68.75-1.14,1.43-1.04,12.25,1.98,31.65-.06,32.99-7.66.56-3.17-.73-6.9-3.52-10.23-3.69-4.4-9.27-7.24-14.22-7.24-5.45,0-12.13,3.26-17.02,8.32-3.79,3.92-8.24,10.7-7.9,20.7.27,8.16,3.42,14.7,9.11,18.9,7.91,5.84,19.87,6.82,34.6,2.83.67-.18,1.35.22,1.53.88.09.32.04.66-.12.95-.17.29-.44.5-.76.58-6.11,1.65-11.84,2.49-17.03,2.49Z"/><path class="cls-1" d="M76.96,182.49c-6.57,1.21-7.14,2.63-7.33,3.09-.85,2.11-.48,6.04-.02,11.01.54,5.82,1.16,12.42-.01,17.95-1.61,7.61-.95,15.19-.41,21.28.2,2.24.36,4.17.4,5.84,0,.32.27.57.58.57,0,0,0,0,.01,0,.32,0,.57-.27.57-.59-.04-1.71-.22-3.75-.41-5.92-.53-6.02-1.18-13.5.39-20.94,1.21-5.7.56-12.68.03-18.3-.43-4.62-.8-8.62-.06-10.47.09-.21.8-1.34,6.46-2.38,11.78-2.17,33.17-1.89,37.29,2.56,2.82,3.05,4.99,8.62,3.49,14.19-.96,3.54-3.79,8.28-11.86,10.75-15.69,4.81-26.87,3.84-26.98,3.82-.32-.03-.6.2-.63.52-.03.32.2.6.52.63.11.01,11.5,1.01,27.43-3.87,8.58-2.63,11.61-7.74,12.64-11.56,1.62-6.01-.72-12-3.75-15.28-4.82-5.21-27.89-4.84-38.35-2.91Z"/><path class="cls-1" d="M70.17,242.9c-.67,0-1.23-.55-1.25-1.22-.04-1.64-.2-3.56-.4-5.77l.66-.09-.67.06c-.54-6.14-1.2-13.77.43-21.48,1.15-5.43.54-11.97,0-17.75-.47-5.06-.85-9.06.06-11.32.42-1.04,1.68-2.37,7.83-3.5h0c5.61-1.03,14.23-1.53,21.44-1.23,6.4.27,14.64,1.24,17.52,4.35,3.16,3.42,5.6,9.66,3.91,15.91-1.08,3.99-4.22,9.31-13.09,12.03-16.08,4.92-27.57,3.91-27.69,3.9-.68-.06-1.19-.67-1.13-1.36.06-.68.67-1.19,1.36-1.13.11.01,11.22.95,26.72-3.8,7.78-2.38,10.5-6.91,11.41-10.29,1.44-5.33-.64-10.65-3.33-13.56-3.64-3.94-24.08-4.68-36.67-2.36-5.28.97-5.97,1.99-5.97,2-.67,1.67-.29,5.78.12,10.12.53,5.66,1.19,12.7-.04,18.5-1.55,7.34-.9,14.77-.38,20.74.19,2.18.37,4.23.41,5.96,0,.33-.12.65-.35.89-.22.23-.52.37-.84.38h-.06Z"/><path class="cls-1" d="M220.23,236.03s-4.17,1.68-15.42,3.55c-4.96.83-8.06.41-10.05-1.36-2.62-2.33-3.56-7.26-3.14-16.49.09-2.02.22-3.99.34-5.89.85-13.17,1.52-23.58-10.86-27.89-13.19-4.6-30.59-1.81-42.31,6.78-.26.19-.31.55-.12.81.19.26.55.31.81.12,11.24-8.25,28.59-11.03,41.24-6.62,9.89,3.45,10.86,10.93,10.4,21.29,0,0,0,0,0,0-.68,7.61-7.69,14.82-18.77,19.31-10.44,4.23-21.45,4.7-25.61,1.11-2.61-2.25-3.4-4.69-2.37-7.25,2.74-6.78,18.4-13.66,36.51-12.68.32.02.59-.23.61-.55.02-.32-.23-.59-.55-.61-16.81-.91-34.41,5.36-37.65,13.4-.85,2.11-1.07,5.3,2.69,8.56,2.09,1.81,5.62,2.7,9.9,2.7,4.99,0,10.99-1.22,16.9-3.61,8.91-3.6,15.27-8.97,18.02-14.95-.12,1.91-.25,3.88-.34,5.91-.44,9.75.58,14.79,3.53,17.41,1.56,1.39,3.65,2.06,6.53,2.06,1.32,0,2.81-.14,4.48-.42,11.41-1.9,15.5-3.55,15.67-3.62.3-.12.44-.46.32-.76-.12-.3-.46-.44-.76-.32Z"/><path class="cls-1" d="M200.52,241.82c-3,0-5.28-.73-6.98-2.23-3.12-2.77-4.21-7.97-3.76-17.94.05-1,.1-1.99.16-2.96-3.33,5.12-9.22,9.54-16.92,12.66-5.83,2.36-11.93,3.66-17.16,3.66-4.59,0-8.17-.99-10.34-2.87-4.06-3.51-3.8-7-2.87-9.31,1.64-4.07,6.66-7.78,14.14-10.44,7.26-2.59,16.08-3.82,24.17-3.38.33.02.64.16.86.41s.34.57.32.9c-.02.33-.17.64-.42.86-.25.22-.57.33-.9.32-8.29-.45-16.73.76-23.75,3.39-6.29,2.36-10.81,5.67-12.1,8.87-.92,2.29-.21,4.41,2.19,6.49,3.98,3.44,14.69,2.92,24.92-1.22,10.84-4.39,17.7-11.39,18.35-18.74v-.02c.48-10.93-.96-17.45-9.95-20.59-12.46-4.34-29.54-1.6-40.62,6.52-.55.41-1.34.29-1.75-.27-.2-.27-.28-.6-.23-.93.05-.33.23-.62.5-.82,11.88-8.71,29.53-11.54,42.92-6.87,5.92,2.06,9.35,5.59,10.82,11.09,1.3,4.89.93,10.73.49,17.48v.03c-.12,1.89-.25,3.84-.34,5.85-.41,9.01.46,13.78,2.92,15.96,1.83,1.62,4.76,1.99,9.5,1.2,11.11-1.85,15.24-3.49,15.28-3.51l.25.62-.25-.62c.64-.26,1.37.05,1.63.68.26.64-.04,1.37-.68,1.63-.17.07-4.36,1.76-15.82,3.67-1.74.29-3.24.43-4.59.43ZM220.48,236.65s0,0,0,0c0,0,0,0,0,0h0ZM191.51,212.16c-.07.33-.15.66-.25.99l.22-.47c.01-.18.02-.35.03-.52Z"/><path class="cls-1" d="M277.95,233.21c-.08.03-7.91,3.24-20.98,3.32-5.2.03-8.74-.97-10.84-3.06-2.5-2.49-2.99-6.35-2.98-11.77.01-6.78,1.57-14.16,3.23-21.98,2.13-10.09,4.34-20.52,3.47-30.83-.03-.32-.3-.56-.63-.53-.32.03-.56.31-.53.63.85,10.14-1.34,20.48-3.45,30.49-1.67,7.88-3.24,15.32-3.25,22.22,0,5.72.54,9.82,3.33,12.59,2.3,2.29,6.03,3.4,11.42,3.4.08,0,.17,0,.25,0,13.32-.08,21.09-3.28,21.42-3.41.3-.12.43-.46.31-.76-.12-.3-.46-.44-.76-.31Z"/><path class="cls-1" d="M256.74,238.37c-5.57,0-9.46-1.18-11.89-3.6-2.95-2.93-3.53-7.18-3.52-13.07.01-6.97,1.59-14.44,3.26-22.36,2.11-9.96,4.28-20.26,3.44-30.3-.03-.33.08-.66.29-.91.22-.26.52-.41.85-.44.33-.03.65.07.91.29.26.22.41.52.44.85.87,10.4-1.34,20.89-3.48,31.02-1.65,7.78-3.2,15.14-3.21,21.84,0,5.25.45,8.97,2.79,11.29,1.97,1.96,5.36,2.9,10.36,2.87,12.9-.08,20.64-3.24,20.72-3.27l.26.62-.26-.62c.63-.27,1.37.04,1.63.67.27.64-.03,1.37-.67,1.64-.33.14-8.22,3.38-21.67,3.47h-.25ZM278.21,233.83s0,0,0,0c0,0,0,0,0,0h0Z"/><path class="cls-1" d="M317.49,214.52c-7.9-2.32-15.35-4.51-16.42-11.57-.45-2.96.95-5.42,4.14-7.31,7.77-4.6,23.54-4.28,28.38-.6.25.19.62.15.81-.11.19-.25.14-.62-.11-.81-5.2-3.97-21.42-4.37-29.67.52-3.59,2.13-5.22,5.06-4.7,8.48,1.18,7.79,9.35,10.19,17.24,12.51,5.37,1.58,10.92,3.21,14.22,6.49,2.7,2.68,3.25,5.58,1.59,8.38-3.79,6.41-17.69,10.37-32.33,6.06-.31-.09-.63.09-.72.39-.09.31.09.63.39.72,4.31,1.27,8.57,1.83,12.55,1.83,10,0,18.23-3.56,21.11-8.42,1.93-3.26,1.3-6.74-1.77-9.8-3.51-3.49-9.2-5.16-14.71-6.78Z"/><path class="cls-1" d="M312.86,240.18c-4.26,0-8.54-.63-12.73-1.86-.66-.2-1.04-.89-.85-1.55.2-.66.89-1.04,1.55-.85,14.34,4.22,27.9.43,31.56-5.76,1.51-2.54,1.01-5.09-1.48-7.56-3.18-3.16-8.65-4.77-13.93-6.32-8.1-2.38-16.47-4.84-17.72-13.05-.56-3.71,1.17-6.88,5.02-9.16,3.91-2.32,9.86-3.66,16.32-3.67,6.18-.02,11.45,1.18,14.1,3.2.55.42.65,1.2.24,1.75-.2.27-.5.44-.83.48-.33.04-.66-.04-.93-.25-2.21-1.68-7.07-2.71-12.68-2.67-5.92.04-11.51,1.28-14.95,3.31-2.98,1.77-4.23,3.94-3.82,6.63,1.01,6.64,8.26,8.77,15.95,11.03l-.19.64.19-.64c5.58,1.64,11.36,3.34,14.99,6.95,3.31,3.29,3.98,7.06,1.87,10.61-3.09,5.23-11.81,8.74-21.68,8.74h0ZM317.35,214.99s0,0,0,0l.14-.47-.14.47Z"/></svg>