<?xml version="1.0" encoding="UTF-8"?><svg id="Layer_1" xmlns="http://www.w3.org/2000/svg" viewBox="0 0 100 100"><defs><style>.cls-1{fill:#e19d1f;}</style></defs><path class="cls-1" d="M50,20.62c-16.23,0-29.38,13.15-29.38,29.38s13.15,29.38,29.38,29.38,29.38-13.15,29.38-29.38-13.15-29.38-29.38-29.38ZM66.82,46.45c-3.39.15-6.39-.97-9.33-2.85-.04.47-.1.81-.1,1.16,0,4.18.01,8.36,0,12.54-.03,7.05-5.09,12.2-12.41,12.68-5.85.38-11.72-4.71-12.64-10.98-1.1-7.49,5.23-14.49,12.78-14.12.41.02.82.1,1.29.16v6.66c-.36,0-.71.02-1.06,0-3.41-.18-6.14,2.18-6.26,5.44-.12,3.1,2.33,5.79,5.37,5.91,3.45.13,6.1-2.28,6.12-5.73.04-8.36.02-16.72.02-25.08,0-.6,0-1.2,0-1.87h6.69c.65,5.72,3.95,8.73,9.54,9.52v6.57Z"/></svg>