<?xml version="1.0" encoding="UTF-8"?><svg id="Layer_1" xmlns="http://www.w3.org/2000/svg" viewBox="0 0 100 100"><defs><style>.cls-1{fill:#e19d1f;}</style></defs><path class="cls-1" d="M50,20.62c-16.23,0-29.38,13.15-29.38,29.38s13.15,29.38,29.38,29.38,29.38-13.15,29.38-29.38-13.15-29.38-29.38-29.38ZM63.73,51.22c0,2.24-.28,4.48-.28,4.48,0,0-.27,1.91-1.1,2.75-1.05,1.1-2.23,1.11-2.77,1.17-3.87.28-9.68.29-9.68.29,0,0-7.19-.07-9.41-.28-.62-.12-2-.08-3.05-1.18-.83-.84-1.1-2.75-1.1-2.75,0,0-.28-2.24-.28-4.48v-2.1c0-2.24.28-4.48.28-4.48,0,0,.27-1.91,1.1-2.75,1.05-1.1,2.23-1.11,2.77-1.17,3.87-.28,9.68-.28,9.68-.28h.01s5.81,0,9.68.28c.54.06,1.72.07,2.77,1.17.83.84,1.1,2.75,1.1,2.75,0,0,.28,2.24.28,4.48v2.1Z"/><polygon class="cls-1" points="47.05 53.76 54.52 49.89 47.05 45.99 47.05 53.76"/></svg>