<?xml version="1.0" encoding="UTF-8"?><svg id="Layer_1" xmlns="http://www.w3.org/2000/svg" viewBox="0 0 100 100"><defs><style>.cls-1{fill:#e19d1f;}</style></defs><path class="cls-1" d="M63.51,39.74c-.32-.81-.7-1.39-1.31-2-.61-.61-1.19-.98-2.01-1.3-.62-.24-1.54-.52-3.24-.6-1.84-.08-2.39-.1-7.05-.1s-5.21.02-7.05.1c-1.7.08-2.63.36-3.24.6-.81.31-1.4.69-2.01,1.3-.61.61-.99,1.18-1.31,2-.24.61-.52,1.53-.6,3.22-.08,1.83-.1,2.38-.1,7.01s.02,5.18.1,7.01c.08,1.69.36,2.61.6,3.22.32.81.7,1.39,1.31,1.99.61.61,1.19.98,2.01,1.3.62.24,1.54.52,3.24.6,1.84.08,2.39.1,7.05.1s5.21-.02,7.05-.1c1.7-.08,2.63-.36,3.24-.6.81-.31,1.4-.69,2.01-1.3.61-.61.99-1.18,1.31-1.99.24-.61.52-1.53.6-3.22.08-1.83.1-2.38.1-7.01s-.02-5.18-.1-7.01c-.08-1.69-.36-2.61-.6-3.22ZM49.91,58.88c-4.95,0-8.96-3.99-8.96-8.91s4.01-8.91,8.96-8.91,8.96,3.99,8.96,8.91-4.01,8.91-8.96,8.91ZM59.22,42.79c-1.16,0-2.09-.93-2.09-2.08s.94-2.08,2.09-2.08,2.09.93,2.09,2.08-.94,2.08-2.09,2.08Z"/><path class="cls-1" d="M49.91,44.19c-3.21,0-5.82,2.59-5.82,5.78s2.61,5.78,5.82,5.78,5.82-2.59,5.82-5.78-2.6-5.78-5.82-5.78Z"/><path class="cls-1" d="M50,20.4c-16.35,0-29.6,13.25-29.6,29.6s13.25,29.6,29.6,29.6,29.6-13.25,29.6-29.6-13.25-29.6-29.6-29.6ZM67.25,57.13c-.08,1.85-.38,3.11-.81,4.21-.45,1.14-1.04,2.11-2.01,3.07-.97.96-1.94,1.56-3.09,2-1.11.43-2.38.72-4.24.81-1.86.08-2.46.1-7.2.1s-5.33-.02-7.2-.1c-1.86-.08-3.13-.38-4.24-.81-1.15-.44-2.12-1.04-3.09-2-.97-.96-1.57-1.93-2.01-3.07-.43-1.1-.73-2.36-.81-4.21-.09-1.85-.11-2.44-.11-7.15s.02-5.3.11-7.15c.08-1.85.38-3.11.81-4.21.45-1.14,1.04-2.11,2.01-3.07.97-.96,1.94-1.56,3.09-2,1.11-.43,2.38-.72,4.24-.81,1.86-.08,2.46-.1,7.2-.1s5.33.02,7.2.1c1.86.08,3.13.38,4.24.81,1.15.44,2.12,1.04,3.09,2,.97.96,1.57,1.93,2.01,3.07.43,1.1.73,2.36.81,4.21.09,1.85.11,2.44.11,7.15s-.02,5.3-.11,7.15Z"/></svg>